<svg xmlns="http://www.w3.org/2000/svg" xmlns:xlink="http://www.w3.org/1999/xlink" fill="none" version="1.1" width="16" height="16" viewBox="0 0 16 16"><defs><clipPath id="master_svg0_31_9962"><rect x="0" y="0" width="16" height="16" rx="0"/></clipPath></defs><g clip-path="url(#master_svg0_31_9962)"><g transform="matrix(1,0,0,-1,0,32.6875)"><g><path d="M14.817375,31.65625Q14.249275,32.18755,13.554975,32.18755Q12.860775,32.18755,12.292675,31.65625L11.345975,30.71875L14.438675,27.65625L15.385375,28.59375Q15.921875,29.15625,15.921875,29.84375Q15.921875,30.53125,15.385375,31.09375L14.817375,31.65625ZM5.349885,24.78125Q5.065855,24.5,4.939625,24.09375L3.9928850000000002,21.34375Q3.866645,20.90625,4.182225,20.5625Q4.529375,20.25,4.971185,20.375L7.779865,21.3125Q8.158565,21.4375,8.442585,21.71875L13.744375,26.96875L10.651675,30.03125L5.349885,24.78125ZM2.951465,30.34375Q1.657575,30.31255,0.805504,29.46875Q-0.0465668,28.62495,-0.078125,27.34375L-0.078125,19.34375Q-0.0465668,18.0625,0.805504,17.21875Q1.657575,16.375,2.951465,16.34375L11.030375,16.34375Q12.324275,16.375,13.176275,17.21875Q14.028375,18.0625,14.059975,19.34375L14.059975,22.34375Q14.059975,22.78125,13.775875,23.0625Q13.491875,23.34375,13.050075,23.34375Q12.608275,23.34375,12.324275,23.0625Q12.040175,22.78125,12.040175,22.34375L12.040175,19.34375Q12.040175,18.90625,11.756175,18.625Q11.472175,18.34375,11.030375,18.34375L2.951465,18.34375Q2.509645,18.34375,2.225625,18.625Q1.941595,18.90625,1.941595,19.34375L1.941595,27.34375Q1.941595,27.78125,2.225625,28.06255Q2.509645,28.34375,2.951465,28.34375L5.981045,28.34375Q6.422865,28.34375,6.706885,28.62495Q6.990905,28.90625,6.990905,29.34375Q6.990905,29.78125,6.706885,30.06255Q6.422865,30.34375,5.981045,30.34375L2.951465,30.34375Z" fill="#9CA3AF" fill-opacity="1" style="mix-blend-mode:passthrough"/></g></g></g></svg>