<svg xmlns="http://www.w3.org/2000/svg" xmlns:xlink="http://www.w3.org/1999/xlink" fill="none" version="1.1" width="17.783876419067383" height="16" viewBox="0 0 17.783876419067383 16"><g transform="matrix(1,0,0,-1,0,32)"><path d="M7.90394,28L7.90394,32L11.8559,28L7.90394,28ZM0,30Q0.0308748,30.8438,0.586621,31.4062Q1.14237,31.9687,1.97599,32L6.91595,32L6.91595,28Q6.91595,27.5625,7.19382,27.2812Q7.4717,27,7.90394,27L11.8559,27L11.8559,23L15.2521,23L14.048,24.21875Q13.6158,24.75,14.048,25.28125Q14.5729,25.71875,15.0978,25.28125L17.5678,22.78125Q18,22.25,17.5678,21.71875L15.0978,19.21875Q14.5729,18.78125,14.048,19.21875Q13.6158,19.75,14.048,20.28125L15.2521,21.5L11.8559,21.5L11.8559,18Q11.825,17.15625,11.2693,16.59375Q10.7136,16.03125,9.87993,16L1.97599,16Q1.14237,16.03125,0.586621,16.59375Q0.0308748,17.15625,0,18L0,30Z" fill="#FFFFFF" fill-opacity="1" style="mix-blend-mode:passthrough"/></g></svg>