<?xml version="1.0" standalone="no"?><!DOCTYPE svg PUBLIC "-//W3C//DTD SVG 1.1//EN" "http://www.w3.org/Graphics/SVG/1.1/DTD/svg11.dtd"><svg t="1744381147923" class="icon" viewBox="0 0 1024 1024" version="1.1" xmlns="http://www.w3.org/2000/svg" p-id="9034" xmlns:xlink="http://www.w3.org/1999/xlink" width="200" height="200"><path d="M334.336 231.936a38.4 38.4 0 0 0-54.272-54.272L204.8 252.928l-24.064-24.064a38.4 38.4 0 0 0-54.272 54.272l51.2 51.2a38.4 38.4 0 0 0 54.272 0l102.4-102.4zM921.6 217.6H460.8a38.4 38.4 0 0 0 0 76.8h460.8a38.4 38.4 0 0 0 0-76.8zM334.336 487.936a38.4 38.4 0 0 0-54.272-54.272L204.8 508.928l-24.064-24.064a38.4 38.4 0 0 0-54.272 54.272l51.2 51.2a38.4 38.4 0 0 0 54.272 0l102.4-102.4zM921.6 473.6H460.8a38.4 38.4 0 0 0 0 76.8h460.8a38.4 38.4 0 0 0 0-76.8zM334.336 743.936a38.4 38.4 0 1 0-54.272-54.272L204.8 764.928l-24.064-24.064a38.4 38.4 0 1 0-54.272 54.272l51.2 51.2a38.4 38.4 0 0 0 54.272 0l102.4-102.4zM921.6 729.6H460.8a38.4 38.4 0 0 0 0 76.8h460.8a38.4 38.4 0 0 0 0-76.8z" p-id="9035"></path></svg>